# xmcd CD database file
#
# Track frame offsets:
#	150
#	34951
#	56884
#	69981
#	77884
#	107681
#	129382
#	157597
#	178817
#	217709
#	253899
#	277218
#
# Disc length: 4105 seconds
#
# Revision: 0
# Processed by: cddbd v1.5.2PL0 Copyright (c) Steve Scherf et al.
# Submitted via: CDex 1.70beta2
#
DISCID=aa10070c
DTITLE=§ Sampler - Szene-Sampler Hamburg
DYEAR=1998
DGENRE=Jazz
TTITLE0=Tarik Hesseini Quotet - It's Alright To fly
TTITLE1=Matamá - Brubeck In Harare
TTITLE2=Heinz-Erich Gödecke - Sketch Nr. 2
TTITLE3=Birds Of Clay - Kick In The Ass
TTITLE4=Deller-Maaß Sixpack - It's only Life
TTITLE5=Tilman Ehrhorn 5-tet - To Any X-Tent
TTITLE6=A.R.S. - Big City
TTITLE7=Jonas Schoen - Si, Claro
TTITLE8=TrioColor - Middelheim I Part One
TTITLE9=Yuo Name It! - Waltz
TTITLE10=Alphabet City - Riverside Park Drive
TTITLE11=Cynthia Utterbach - Speak Low
EXTD=YEAR: 1998
EXTT0=
EXTT1=
EXTT2=
EXTT3=
EXTT4=
EXTT5=
EXTT6=
EXTT7=
EXTT8=
EXTT9=
EXTT10=
EXTT11=
PLAYORDER=
